<svg xmlns="http://www.w3.org/2000/svg" version="1.1" xmlns:xlink="http://www.w3.org/1999/xlink"
    xmlns:svgjs="http://svgjs.dev/svgjs" width="2000" height="939" viewBox="0 0 2000 939">
    <g transform="matrix(1,0,0,1,-1.2121212121212466,-1.1337193911978716)"><svg viewBox="0 0 396 186"
            data-background-color="#ffe9d1" preserveAspectRatio="xMidYMid meet" height="939" width="2000"
            xmlns="http://www.w3.org/2000/svg" xmlns:xlink="http://www.w3.org/1999/xlink">
            <g id="tight-bounds" transform="matrix(1,0,0,1,0.2400000000000091,0.22457061423088476)"><svg
                    viewBox="0 0 395.52 185.55085877153823" height="185.55085877153823" width="395.52">
                    <g><svg viewBox="0 0 395.52 185.55085877153823" height="185.55085877153823" width="395.52">
                            <g transform="matrix(1,0,0,1,0,114.67787465207866)"><svg
                                    viewBox="0 0 395.52 70.87298411945956" height="70.87298411945956" width="395.52">
                                    <g id="textblocktransform"><svg viewBox="0 0 395.52 70.87298411945956"
                                            height="70.87298411945956" width="395.52" id="textblock">
                                            <g><svg viewBox="0 0 395.52 70.87298411945956" height="70.87298411945956"
                                                    width="395.52">
                                                    <g transform="matrix(1,0,0,1,0,0)"><svg width="395.52"
                                                            viewBox="2.75 -37.5 210.93 37.8" height="70.87298411945956"
                                                            data-palette-color="#fc6f2f">
                                                            <path
                                                                d="M22.3-37.4L22.75-6.65 33.25-37.25 39.6-37.25 40.05-6.65 50.55-37.25 54.05-37.25 40.15 0 32.95 0 32.35-25.45 22.85 0 15.65 0 14.85-34.15Q11.35-32.85 9.38-30.03 7.4-27.2 7.4-23.1L7.4-23.1Q7.4-22.2 7.5-21.6 7.6-21 7.7-20.63 7.8-20.25 7.93-20.03 8.05-19.8 8.1-19.65L8.1-19.65Q5.6-19.65 4.17-20.68 2.75-21.7 2.75-24.25L2.75-24.25Q2.75-26.9 4.33-29.3 5.9-31.7 8.4-33.52 10.9-35.35 14.03-36.43 17.15-37.5 20.25-37.5L20.25-37.5Q20.8-37.5 21.3-37.48 21.8-37.45 22.3-37.4L22.3-37.4ZM66.75-25L74-25 70.35-8Q70.15-7.15 70.15-6.4L70.15-6.4Q70.15-5.35 70.65-4.95 71.15-4.55 72.2-4.55L72.2-4.55Q73.65-4.55 74.67-5.8 75.7-7.05 76.25-8.95L76.25-8.95 78.35-8.95Q77.3-5.9 75.97-4.13 74.65-2.35 73.27-1.43 71.9-0.5 70.6-0.25 69.3 0 68.3 0L68.3 0Q66.25 0 64.97-1.1 63.7-2.2 63.4-4.35L63.4-4.35Q62.85-3.5 62.1-2.65 61.35-1.8 60.42-1.15 59.5-0.5 58.4-0.1 57.3 0.3 55.95 0.3L55.95 0.3Q54.65 0.3 53.47-0.13 52.3-0.55 51.35-1.5 50.4-2.45 49.85-3.98 49.3-5.5 49.3-7.75L49.3-7.75Q49.3-9.45 49.65-11.4 50-13.35 50.7-15.3 51.4-17.25 52.45-19.05 53.5-20.85 54.95-22.23 56.4-23.6 58.17-24.43 59.95-25.25 62.15-25.25L62.15-25.25Q62.75-25.25 63.42-25.18 64.1-25.1 64.67-24.83 65.25-24.55 65.67-24.03 66.1-23.5 66.25-22.65L66.25-22.65 66.75-25ZM63.7-22.15L63.7-22.15Q62.1-22.15 60.8-20.68 59.5-19.2 58.6-17.07 57.7-14.95 57.2-12.58 56.7-10.2 56.7-8.45L56.7-8.45Q56.7-7 56.97-6.23 57.25-5.45 57.62-5.08 58-4.7 58.42-4.63 58.85-4.55 59.2-4.55L59.2-4.55Q59.75-4.55 60.37-4.83 61-5.1 61.6-5.65 62.2-6.2 62.65-7.03 63.1-7.85 63.35-8.95L63.35-8.95 65.75-20.25Q65.75-20.45 65.62-20.78 65.5-21.1 65.27-21.4 65.05-21.7 64.67-21.93 64.3-22.15 63.7-22.15ZM90.65-18.1L90.65-18.1Q90.65-20.65 88.85-20.65L88.85-20.65Q87.5-20.65 86.5-19.3 85.5-17.95 84.95-16.05L84.95-16.05 81.55 0 74.35 0 79.65-25 86.85-25 86.3-22.4Q87.9-24.2 89.45-24.7 91-25.2 92.15-25.2L92.15-25.2Q94.55-25.2 96.12-23.88 97.7-22.55 97.7-19.55L97.7-19.55Q97.7-18.05 97.32-16.23 96.95-14.4 96.5-12.63 96.05-10.85 95.67-9.28 95.3-7.7 95.3-6.65L95.3-6.65Q95.3-5.7 95.72-5.13 96.15-4.55 97.3-4.55L97.3-4.55Q98.1-4.55 98.72-4.88 99.35-5.2 99.82-5.78 100.3-6.35 100.7-7.15 101.1-7.95 101.5-8.95L101.5-8.95 103.6-8.95Q102.55-5.85 101.35-4.03 100.15-2.2 98.9-1.25 97.65-0.3 96.47 0 95.3 0.3 94.3 0.3L94.3 0.3Q92.65 0.3 91.52-0.18 90.4-0.65 89.7-1.45 89-2.25 88.7-3.28 88.4-4.3 88.4-5.35L88.4-5.35Q88.4-6.6 88.75-8.33 89.1-10.05 89.52-11.8 89.95-13.55 90.3-15.23 90.65-16.9 90.65-18.1ZM120.24-34L127.64-35 121.89-8Q121.69-7.15 121.69-6.4L121.69-6.4Q121.69-5.35 122.19-4.95 122.69-4.55 123.74-4.55L123.74-4.55Q125.19-4.55 126.22-5.8 127.24-7.05 127.79-8.95L127.79-8.95 129.89-8.95Q128.84-5.9 127.52-4.13 126.19-2.35 124.82-1.43 123.44-0.5 122.14-0.25 120.84 0 119.84 0L119.84 0Q117.79 0 116.52-1.1 115.24-2.2 114.94-4.35L114.94-4.35Q114.39-3.5 113.64-2.65 112.89-1.8 111.97-1.15 111.04-0.5 109.94-0.1 108.84 0.3 107.49 0.3L107.49 0.3Q106.19 0.3 105.02-0.13 103.84-0.55 102.89-1.5 101.94-2.45 101.39-3.98 100.84-5.5 100.84-7.75L100.84-7.75Q100.84-9.45 101.19-11.4 101.54-13.35 102.24-15.3 102.94-17.25 103.99-19.05 105.04-20.85 106.49-22.23 107.94-23.6 109.72-24.43 111.49-25.25 113.69-25.25L113.69-25.25Q114.29-25.25 114.97-25.18 115.64-25.1 116.24-24.83 116.84-24.55 117.27-24.03 117.69-23.5 117.79-22.6L117.79-22.6 120.24-34ZM115.24-22.15L115.24-22.15Q113.64-22.15 112.34-20.68 111.04-19.2 110.14-17.07 109.24-14.95 108.74-12.58 108.24-10.2 108.24-8.45L108.24-8.45Q108.24-7 108.52-6.23 108.79-5.45 109.17-5.08 109.54-4.7 109.97-4.63 110.39-4.55 110.74-4.55L110.74-4.55Q111.29-4.55 111.92-4.83 112.54-5.1 113.14-5.65 113.74-6.2 114.19-7.03 114.64-7.85 114.89-8.95L114.89-8.95 117.29-20.2Q117.29-20.65 116.87-21.4 116.44-22.15 115.24-22.15ZM134.54-8.1L134.54-8.1Q134.54-5.55 135.44-4.73 136.34-3.9 138.14-3.9L138.14-3.9Q139.64-3.9 140.84-4.3 142.04-4.7 143.09-5.38 144.14-6.05 145.09-6.98 146.04-7.9 146.99-8.95L146.99-8.95 148.69-8.95Q147.64-7.2 146.29-5.55 144.94-3.9 143.24-2.6 141.54-1.3 139.49-0.5 137.44 0.3 134.94 0.3L134.94 0.3Q131.39 0.3 129.27-1.55 127.14-3.4 127.14-7.65L127.14-7.65Q127.14-9.1 127.44-10.95 127.74-12.8 128.37-14.75 128.99-16.7 130.04-18.57 131.09-20.45 132.59-21.95 134.09-23.45 136.09-24.35 138.09-25.25 140.64-25.25L140.64-25.25Q142.29-25.25 143.37-24.85 144.44-24.45 145.06-23.78 145.69-23.1 145.92-22.25 146.14-21.4 146.14-20.45L146.14-20.45Q146.14-18.35 145.19-16.5 144.24-14.65 142.64-13.28 141.04-11.9 138.97-11.08 136.89-10.25 134.64-10.1L134.64-10.1Q134.59-9.55 134.56-9.05 134.54-8.55 134.54-8.1ZM142.29-20.55L142.29-20.55Q142.29-21.5 142.02-22.05 141.74-22.6 141.04-22.6L141.04-22.6Q140.09-22.6 139.19-21.7 138.29-20.8 137.49-19.38 136.69-17.95 136.06-16.15 135.44-14.35 135.04-12.5L135.04-12.5Q136.49-12.6 137.81-13.3 139.14-14 140.14-15.1 141.14-16.2 141.72-17.63 142.29-19.05 142.29-20.55ZM150.39-25L157.59-25 156.89-21.85Q158.34-23.25 159.91-24.25 161.49-25.25 162.99-25.25L162.99-25.25Q164.69-25.25 165.56-24.1 166.44-22.95 166.44-21.5L166.44-21.5Q166.44-20.85 166.21-20.2 165.99-19.55 165.54-19.03 165.09-18.5 164.41-18.18 163.74-17.85 162.84-17.85L162.84-17.85Q161.79-17.85 161.41-18.35 161.04-18.85 160.89-19.43 160.74-20 160.61-20.5 160.49-21 159.94-21L159.94-21Q158.99-21 158.14-20.45 157.29-19.9 156.29-19L156.29-19 152.29 0 145.09 0 150.39-25ZM170.19-31.65L170.19-31.65Q170.19-33.3 171.34-34.48 172.49-35.65 174.14-35.65L174.14-35.65Q175.79-35.65 176.96-34.48 178.14-33.3 178.14-31.65L178.14-31.65Q178.14-30 176.96-28.85 175.79-27.7 174.14-27.7L174.14-27.7Q172.49-27.7 171.34-28.85 170.19-30 170.19-31.65ZM169.19-25L176.39-25 172.79-8Q172.59-7.15 172.59-6.4L172.59-6.4Q172.59-5.35 173.09-4.95 173.59-4.55 174.64-4.55L174.64-4.55Q176.09-4.55 177.34-5.8 178.59-7.05 179.14-8.95L179.14-8.95 181.24-8.95Q180.19-5.9 178.79-4.08 177.39-2.25 175.94-1.28 174.49-0.3 173.11 0 171.74 0.3 170.74 0.3L170.74 0.3Q168.49 0.3 166.94-1.13 165.39-2.55 165.39-5.7L165.39-5.7Q165.39-7.05 165.79-8.95L165.79-8.95 169.19-25ZM198.23-8.95L200.33-8.95Q198.38-6.7 196.41-5.2 194.43-3.7 192.68-2.7L192.68-2.7Q191.88-1.85 190.93-1.3 189.98-0.75 188.93-0.38 187.88 0 186.83 0.15 185.78 0.3 184.83 0.3L184.83 0.3Q182.93 0.3 181.56-0.28 180.18-0.85 179.28-1.75 178.38-2.65 177.96-3.8 177.53-4.95 177.53-6.1L177.53-6.1Q177.53-7.85 178.33-9.05 179.13-10.25 180.18-10.75L180.18-10.75Q182.28-14.5 183.73-18.18 185.18-21.85 186.33-25.55L186.33-25.55 193.73-26.55Q193.93-21.7 194.13-18.7 194.33-15.7 194.48-13.83 194.63-11.95 194.73-10.78 194.83-9.6 194.83-8.35L194.83-8.35Q194.83-7.25 194.63-6.45L194.63-6.45Q196.78-7.7 198.23-8.95L198.23-8.95ZM183.73-8.95L183.73-8.95Q183.73-8.05 183.13-7.28 182.53-6.5 181.53-6.5L181.53-6.5Q181.13-6.5 180.76-6.63 180.38-6.75 180.18-7.15L180.18-7.15Q180.18-5.4 180.88-4.53 181.58-3.65 183.23-3.65L183.23-3.65Q184.03-3.65 184.83-3.88 185.63-4.1 186.23-4.65 186.83-5.2 187.21-6.1 187.58-7 187.58-8.3L187.58-8.3Q187.58-9.25 187.51-10.15 187.43-11.05 187.31-12.3 187.18-13.55 187.01-15.4 186.83-17.25 186.63-20.15L186.63-20.15Q185.88-17.7 184.86-15.4 183.83-13.1 182.58-10.7L182.58-10.7Q183.08-10.45 183.41-10.03 183.73-9.6 183.73-8.95ZM203.13-31.9L210.53-32.9 208.83-25 211.83-25 211.43-23 208.43-23 205.23-8Q205.03-7.15 205.03-6.4L205.03-6.4Q205.03-5.35 205.53-4.95 206.03-4.55 207.08-4.55L207.08-4.55Q208.53-4.55 209.78-5.8 211.03-7.05 211.58-8.95L211.58-8.95 213.68-8.95Q212.63-5.9 211.23-4.08 209.83-2.25 208.38-1.28 206.93-0.3 205.56 0 204.18 0.3 203.18 0.3L203.18 0.3Q200.93 0.3 199.38-1.13 197.83-2.55 197.83-5.7L197.83-5.7Q197.83-7.05 198.23-8.95L198.23-8.95 201.23-23 199.58-23 199.98-25 201.63-25 203.13-31.9Z"
                                                                opacity="1" transform="matrix(1,0,0,1,0,0)"
                                                                fill="#fc6f2f" class="wordmark-text-0"
                                                                data-fill-palette-color="primary" id="text-0"></path>
                                                        </svg></g>
                                                </svg></g>
                                        </svg></g>
                                </svg></g>
                            <g transform="matrix(1,0,0,1,148.75614056130425,0)"><svg
                                    viewBox="0 0 98.0077188773915 97.94646405309312" height="97.94646405309312"
                                    width="98.0077188773915">
                                    <g><svg xmlns="http://www.w3.org/2000/svg"
                                            xmlns:xlink="http://www.w3.org/1999/xlink" version="1.1" x="0" y="0"
                                            viewBox="0 0 100 99.9375" xml:space="preserve" height="97.94646405309312"
                                            width="98.0077188773915" class="icon-icon-0"
                                            data-fill-palette-color="accent" id="icon-0">
                                            <path
                                                d="M100 0C93.933 0 86.238 3.957 78.938 9.188L63.813 24.219 45.094 22.469 47.125 20.438C47.404 20.158 47.404 19.717 47.125 19.438L45.281 17.594C45.002 17.314 44.561 17.314 44.281 17.594L39.906 21.969 30.313 21.063 32.5 18.875C32.779 18.595 32.779 18.123 32.5 17.844L30.656 16.031C30.377 15.752 29.936 15.752 29.656 16.031L25.094 20.594 9.281 19.125 4.281 24.469 21.344 29.781 36.25 35.281 46.344 41.625 32.156 55.719C27.362 62.053 23.458 68.141 20.469 73.188L2.281 71.781 0 74.063 15.188 82.719C14.283 84.487 13.781 85.531 13.781 85.531 13.781 85.531 14.834 85.058 16.594 84.188L24.938 99.938 27.063 97.813 26.25 78.969C31.32 76.024 37.42 72.178 43.781 67.375L57.906 53.219 63.875 62.563 69.531 77.125 75.25 95.344 80.438 90.219 78.781 72.219 82.313 68.688C82.591 68.408 82.591 67.936 82.313 67.656L80.469 65.844C80.188 65.564 79.747 65.564 79.469 65.844L78.281 67.031 77.656 60.281 82.313 55.625C82.591 55.346 82.591 54.903 82.313 54.625L80.469 52.781C80.188 52.502 79.747 52.502 79.469 52.781L77.156 55.094 75.375 35.781 90.844 20.281C96.054 13.174 100 5.733 100 0z"
                                                fill="#515839" data-fill-palette-color="accent"></path>
                                        </svg></g>
                                </svg></g>
                            <g></g>
                        </svg></g>
                    <defs></defs>
                </svg>
                <rect width="395.52" height="185.55085877153823" fill="none" stroke="none" visibility="hidden"></rect>
            </g>
        </svg></g>
</svg>